<svg xmlns="http://www.w3.org/2000/svg" xmlns:xlink="http://www.w3.org/1999/xlink" width="120" zoomAndPan="magnify" viewBox="0 0 90 89.999999" height="120" preserveAspectRatio="xMidYMid meet" version="1.0"><defs><g/><clipPath id="1cce6e4a1b"><path d="M 45 0 C 20.148438 0 0 20.148438 0 45 C 0 69.851562 20.148438 90 45 90 C 69.851562 90 90 69.851562 90 45 C 90 20.148438 69.851562 0 45 0 Z M 45 0 " clip-rule="nonzero"/></clipPath><clipPath id="e75705bfef"><path d="M 0 0 L 90 0 L 90 90 L 0 90 Z M 0 0 " clip-rule="nonzero"/></clipPath><clipPath id="42b6a0a61c"><path d="M 45 0 C 20.148438 0 0 20.148438 0 45 C 0 69.851562 20.148438 90 45 90 C 69.851562 90 90 69.851562 90 45 C 90 20.148438 69.851562 0 45 0 Z M 45 0 " clip-rule="nonzero"/></clipPath><clipPath id="08c50962d7"><rect x="0" width="90" y="0" height="90"/></clipPath><clipPath id="5339d5ed64"><path d="M 2.292969 21 L 54 21 L 54 42 L 2.292969 42 Z M 2.292969 21 " clip-rule="nonzero"/></clipPath><clipPath id="f9cea18833"><path d="M 52 19.375 L 59 19.375 L 59 25 L 52 25 Z M 52 19.375 " clip-rule="nonzero"/></clipPath><clipPath id="16152c54b9"><path d="M 2.292969 41 L 54 41 L 54 62 L 2.292969 62 Z M 2.292969 41 " clip-rule="nonzero"/></clipPath><clipPath id="1f23ba37b2"><path d="M 80 57 L 86 57 L 86 62.875 L 80 62.875 Z M 80 57 " clip-rule="nonzero"/></clipPath></defs><g clip-path="url(#1cce6e4a1b)"><g transform="matrix(1, 0, 0, 1, 0, -0.00000000000000949)"><g clip-path="url(#08c50962d7)"><g clip-path="url(#e75705bfef)"><g clip-path="url(#42b6a0a61c)"><rect x="-19.8" width="129.6" fill="#ffffff" height="129.599999" y="-19.8" fill-opacity="1"/></g></g></g></g><path stroke-linecap="butt" transform="matrix(0.75, 0, 0, 0.75, 0.0000005, 0.000002)" fill="none" stroke-linejoin="miter" d="M 59.999999 -0.00000266667 C 26.864582 -0.00000266667 -0.000000666667 26.86458 -0.000000666667 59.999997 C -0.000000666667 93.135413 26.864582 119.999996 59.999999 119.999996 C 93.135415 119.999996 119.999998 93.135413 119.999998 59.999997 C 119.999998 26.86458 93.135415 -0.00000266667 59.999999 -0.00000266667 Z M 59.999999 -0.00000266667 " stroke="#ffffff" stroke-width="2" stroke-opacity="1" stroke-miterlimit="4"/></g><g clip-path="url(#5339d5ed64)"><path fill="#d41813" d="M 2.292969 41.277344 L 16.066406 21.304688 L 16.660156 21.304688 C 26.839844 21.21875 34.800781 21.183594 40.859375 21.148438 C 46.917969 21.128906 51.070312 21.128906 53.707031 21.128906 L 53.707031 23.398438 C 51.070312 23.398438 46.917969 23.398438 40.859375 23.417969 C 34.921875 23.453125 27.171875 23.488281 17.273438 23.574219 L 5.050781 41.277344 Z M 2.292969 41.277344 " fill-opacity="1" fill-rule="nonzero"/></g><g clip-path="url(#f9cea18833)"><path fill="#d41813" d="M 55.542969 19.382812 C 56.308594 19.382812 56.988281 19.699219 57.480469 20.1875 C 57.96875 20.675781 58.28125 21.375 58.28125 22.125 C 58.28125 22.875 57.96875 23.558594 57.480469 24.0625 C 56.988281 24.550781 56.308594 24.867188 55.542969 24.867188 C 54.789062 24.867188 54.109375 24.550781 53.601562 24.0625 C 53.113281 23.558594 52.800781 22.875 52.800781 22.125 C 52.800781 21.375 53.113281 20.675781 53.601562 20.1875 C 54.109375 19.699219 54.789062 19.382812 55.542969 19.382812 Z M 56.832031 20.832031 C 56.5 20.519531 56.046875 20.308594 55.542969 20.308594 C 55.050781 20.308594 54.597656 20.519531 54.265625 20.832031 C 53.933594 21.164062 53.726562 21.617188 53.726562 22.125 C 53.726562 22.632812 53.933594 23.085938 54.265625 23.398438 C 54.597656 23.730469 55.050781 23.941406 55.542969 23.941406 C 56.046875 23.941406 56.5 23.730469 56.832031 23.398438 C 57.148438 23.085938 57.355469 22.632812 57.355469 22.125 C 57.355469 21.617188 57.148438 21.164062 56.832031 20.832031 Z M 56.832031 20.832031 " fill-opacity="1" fill-rule="nonzero"/></g><path fill="#d41813" d="M 53.007812 27.816406 C 53.761719 27.816406 54.457031 28.113281 54.949219 28.621094 C 55.4375 29.109375 55.75 29.789062 55.75 30.558594 C 55.75 31.308594 55.4375 31.988281 54.949219 32.476562 C 54.457031 32.984375 53.761719 33.28125 53.007812 33.28125 C 52.257812 33.28125 51.578125 32.984375 51.070312 32.496094 L 51.070312 32.476562 C 50.582031 31.988281 50.269531 31.308594 50.269531 30.558594 C 50.269531 29.789062 50.582031 29.109375 51.070312 28.621094 C 51.578125 28.113281 52.257812 27.816406 53.007812 27.816406 Z M 54.300781 29.265625 C 53.96875 28.933594 53.515625 28.742188 53.007812 28.742188 C 52.503906 28.742188 52.050781 28.933594 51.734375 29.265625 C 51.402344 29.597656 51.195312 30.050781 51.195312 30.558594 C 51.195312 31.046875 51.402344 31.5 51.734375 31.832031 C 52.050781 32.164062 52.503906 32.355469 53.007812 32.355469 C 53.515625 32.355469 53.96875 32.164062 54.300781 31.832031 C 54.617188 31.5 54.824219 31.046875 54.824219 30.558594 C 54.824219 30.050781 54.617188 29.597656 54.300781 29.265625 Z M 54.300781 29.265625 " fill-opacity="1" fill-rule="nonzero"/><path fill="#d41813" d="M 44.28125 23.765625 C 45.046875 23.765625 45.730469 24.082031 46.21875 24.570312 C 46.707031 25.058594 47.019531 25.738281 47.019531 26.507812 C 47.019531 27.257812 46.707031 27.9375 46.21875 28.445312 C 45.730469 28.933594 45.046875 29.25 44.28125 29.25 C 43.53125 29.25 42.847656 28.933594 42.34375 28.445312 C 41.855469 27.9375 41.539062 27.257812 41.539062 26.507812 C 41.539062 25.738281 41.855469 25.058594 42.34375 24.570312 C 42.847656 24.082031 43.53125 23.765625 44.28125 23.765625 Z M 45.574219 25.214844 C 45.242188 24.902344 44.785156 24.691406 44.28125 24.691406 C 43.792969 24.691406 43.335938 24.902344 43.007812 25.214844 C 42.675781 25.546875 42.464844 26 42.464844 26.507812 C 42.464844 26.996094 42.675781 27.449219 43.007812 27.78125 C 43.335938 28.113281 43.792969 28.324219 44.28125 28.324219 C 44.785156 28.324219 45.242188 28.113281 45.574219 27.78125 C 45.886719 27.449219 46.097656 26.996094 46.097656 26.507812 C 46.097656 26 45.886719 25.546875 45.574219 25.214844 Z M 45.574219 25.214844 " fill-opacity="1" fill-rule="nonzero"/><path fill="#d41813" d="M 7.863281 41.277344 L 18.773438 25.460938 L 19.367188 25.441406 C 28.988281 25.371094 36.617188 25.320312 42.535156 25.300781 L 42.535156 27.570312 C 36.753906 27.589844 29.320312 27.640625 19.976562 27.710938 L 10.621094 41.277344 Z M 7.863281 41.277344 " fill-opacity="1" fill-rule="nonzero"/><path fill="#d41813" d="M 13.429688 41.277344 L 21.480469 29.597656 L 22.074219 29.597656 C 32.25 29.511719 40.210938 29.476562 46.269531 29.441406 C 47.964844 29.441406 49.519531 29.441406 50.933594 29.421875 L 50.933594 31.710938 C 49.519531 31.710938 47.964844 31.710938 46.269531 31.710938 C 40.335938 31.746094 32.582031 31.78125 22.683594 31.867188 L 16.191406 41.277344 Z M 13.429688 41.277344 " fill-opacity="1" fill-rule="nonzero"/><path fill="#1c4475" d="M 13.554688 41.226562 L 21.621094 52.90625 L 22.214844 52.90625 C 32.390625 52.992188 40.335938 53.027344 46.410156 53.0625 C 48.105469 53.0625 49.65625 53.0625 51.070312 53.078125 L 51.070312 50.792969 C 49.65625 50.792969 48.105469 50.792969 46.410156 50.792969 C 40.472656 50.757812 32.722656 50.722656 22.804688 50.632812 L 16.328125 41.226562 Z M 13.554688 41.226562 " fill-opacity="1" fill-rule="nonzero"/><path fill="#1c4475" d="M 84.136719 49.097656 C 84.886719 49.097656 85.570312 49.414062 86.074219 49.902344 C 86.566406 50.390625 86.878906 51.089844 86.878906 51.839844 C 86.878906 52.589844 86.566406 53.269531 86.074219 53.777344 C 85.570312 54.265625 84.886719 54.582031 84.136719 54.582031 C 83.386719 54.582031 82.707031 54.265625 82.199219 53.777344 C 81.710938 53.269531 81.398438 52.589844 81.398438 51.839844 C 81.398438 51.089844 81.710938 50.390625 82.199219 49.902344 C 82.707031 49.414062 83.386719 49.097656 84.136719 49.097656 Z M 85.414062 50.546875 C 85.097656 50.234375 84.644531 50.023438 84.136719 50.023438 C 83.632812 50.023438 83.175781 50.234375 82.847656 50.546875 C 82.53125 50.878906 82.320312 51.332031 82.320312 51.839844 C 82.320312 52.34375 82.53125 52.800781 82.847656 53.113281 C 83.175781 53.445312 83.632812 53.65625 84.136719 53.65625 C 84.644531 53.65625 85.097656 53.445312 85.414062 53.113281 C 85.742188 52.800781 85.953125 52.34375 85.953125 51.839844 C 85.953125 51.332031 85.742188 50.878906 85.414062 50.546875 Z M 85.414062 50.546875 " fill-opacity="1" fill-rule="nonzero"/><path fill="#1c4475" d="M 49.394531 50.757812 L 82.320312 50.757812 L 82.320312 53.078125 L 49.394531 53.078125 Z M 49.394531 50.757812 " fill-opacity="1" fill-rule="evenodd"/><path fill="#1c4475" d="M 8 41.226562 L 18.914062 57.042969 L 19.507812 57.058594 C 29.125 57.128906 36.753906 57.183594 42.675781 57.199219 L 42.675781 54.929688 C 36.894531 54.910156 29.457031 54.859375 20.101562 54.789062 L 10.761719 41.226562 Z M 8 41.226562 " fill-opacity="1" fill-rule="nonzero"/><path fill="#1c4475" d="M 69.054688 53.269531 C 69.804688 53.269531 70.484375 53.585938 70.992188 54.074219 C 71.480469 54.582031 71.792969 55.261719 71.792969 56.011719 C 71.792969 56.761719 71.480469 57.460938 70.992188 57.949219 C 70.484375 58.4375 69.804688 58.753906 69.054688 58.753906 C 68.285156 58.753906 67.605469 58.4375 67.117188 57.949219 C 66.609375 57.460938 66.3125 56.761719 66.3125 56.011719 C 66.3125 55.261719 66.609375 54.582031 67.117188 54.074219 C 67.605469 53.585938 68.285156 53.269531 69.054688 53.269531 Z M 70.328125 54.738281 C 69.996094 54.40625 69.542969 54.195312 69.054688 54.195312 C 68.546875 54.195312 68.09375 54.40625 67.761719 54.738281 C 67.429688 55.070312 67.238281 55.523438 67.238281 56.011719 C 67.238281 56.519531 67.429688 56.972656 67.761719 57.304688 C 68.09375 57.617188 68.546875 57.828125 69.054688 57.828125 C 69.542969 57.828125 69.996094 57.617188 70.328125 57.304688 C 70.660156 56.972656 70.871094 56.519531 70.871094 56.011719 C 70.871094 55.523438 70.660156 55.070312 70.328125 54.738281 Z M 70.328125 54.738281 " fill-opacity="1" fill-rule="nonzero"/><path fill="#1c4475" d="M 33.859375 54.878906 L 66.785156 54.878906 L 66.785156 57.199219 L 33.859375 57.199219 Z M 33.859375 54.878906 " fill-opacity="1" fill-rule="evenodd"/><g clip-path="url(#16152c54b9)"><path fill="#1c4475" d="M 2.433594 41.226562 L 16.207031 61.195312 L 16.800781 61.195312 C 26.980469 61.285156 34.921875 61.320312 41 61.355469 C 47.039062 61.371094 51.210938 61.371094 53.847656 61.371094 L 53.847656 59.101562 C 51.210938 59.101562 47.039062 59.101562 41 59.085938 C 35.0625 59.050781 27.3125 59.015625 17.410156 58.925781 L 5.191406 41.226562 Z M 2.433594 41.226562 " fill-opacity="1" fill-rule="nonzero"/></g><g clip-path="url(#1f23ba37b2)"><path fill="#1c4475" d="M 82.933594 57.445312 C 83.683594 57.445312 84.363281 57.757812 84.871094 58.246094 C 85.359375 58.753906 85.65625 59.433594 85.65625 60.183594 C 85.65625 60.953125 85.359375 61.632812 84.871094 62.121094 C 84.363281 62.628906 83.683594 62.925781 82.933594 62.925781 C 82.164062 62.925781 81.484375 62.628906 80.996094 62.121094 C 80.488281 61.632812 80.191406 60.953125 80.191406 60.183594 C 80.191406 59.433594 80.488281 58.753906 80.996094 58.246094 C 81.484375 57.757812 82.164062 57.445312 82.933594 57.445312 Z M 84.207031 58.910156 C 83.875 58.578125 83.421875 58.367188 82.933594 58.367188 C 82.425781 58.367188 81.972656 58.578125 81.640625 58.910156 C 81.308594 59.242188 81.117188 59.695312 81.117188 60.183594 C 81.117188 60.691406 81.308594 61.144531 81.640625 61.476562 C 81.972656 61.808594 82.425781 62 82.933594 62 C 83.421875 62 83.875 61.808594 84.207031 61.476562 C 84.539062 61.144531 84.730469 60.691406 84.730469 60.183594 C 84.730469 59.695312 84.539062 59.242188 84.207031 58.910156 Z M 84.207031 58.910156 " fill-opacity="1" fill-rule="nonzero"/></g><path fill="#1c4475" d="M 47.84375 59.066406 L 80.769531 59.066406 L 80.769531 61.390625 L 47.84375 61.390625 Z M 47.84375 59.066406 " fill-opacity="1" fill-rule="evenodd"/><g fill="#000000" fill-opacity="1"><g transform="translate(44.472654, 64.061703)"><g><path d="M 0.53125 0.015625 C 0.457031 0.015625 0.394531 -0.00390625 0.34375 -0.046875 C 0.300781 -0.0859375 0.28125 -0.140625 0.28125 -0.203125 C 0.28125 -0.273438 0.300781 -0.332031 0.34375 -0.375 C 0.394531 -0.414062 0.457031 -0.4375 0.53125 -0.4375 C 0.601562 -0.4375 0.660156 -0.414062 0.703125 -0.375 C 0.742188 -0.332031 0.765625 -0.28125 0.765625 -0.21875 C 0.765625 -0.144531 0.742188 -0.0859375 0.703125 -0.046875 C 0.660156 -0.00390625 0.601562 0.015625 0.53125 0.015625 Z M 0.53125 0.015625 "/></g></g></g></svg>